HIERARCHY
ROOT Hips
{
	OFFSET -32.860001 56.121803 44.745396
	CHANNELS 6 Xposition Yposition Zposition Zrotation Xrotation Yrotation
	JOINT Chest
	{
		OFFSET -0.637402 0.831600 5.390099
		CHANNELS 6 Xposition Yposition Zposition Zrotation Xrotation Yrotation
		JOINT Chest2
		{
			OFFSET 0.000000 0.000000 4.429901
			CHANNELS 6 Xposition Yposition Zposition Zrotation Xrotation Yrotation
			JOINT Neck
			{
				OFFSET 0.000000 0.000000 10.301395
				CHANNELS 6 Xposition Yposition Zposition Zrotation Xrotation Yrotation
				JOINT Head
				{
					OFFSET 0.000000 0.000000 2.173897
					CHANNELS 6 Xposition Yposition Zposition Zrotation Xrotation Yrotation
					End Site
					{
						OFFSET 0.000000 0.000000 8.298004
					}
				}
			}
			JOINT LeftCollar
			{
				OFFSET 2.142401 -0.572701 5.717800
				CHANNELS 6 Xposition Yposition Zposition Zrotation Xrotation Yrotation
				JOINT LeftShoulder
				{
					OFFSET 5.674000 0.000000 0.000000
					CHANNELS 6 Xposition Yposition Zposition Zrotation Xrotation Yrotation
					JOINT LeftElbow
					{
						OFFSET 0.000000 0.000000 -12.238701
						CHANNELS 6 Xposition Yposition Zposition Zrotation Xrotation Yrotation
						JOINT LeftWrist
						{
							OFFSET 0.000000 0.000000 -10.253700
							CHANNELS 6 Xposition Yposition Zposition Zrotation Xrotation Yrotation
							End Site
							{
								OFFSET 0.000000 0.000000 -2.173901
							}
						}
					}
				}
			}
			JOINT RightCollar
			{
				OFFSET -2.882599 -1.580101 6.695801
				CHANNELS 6 Xposition Yposition Zposition Zrotation Xrotation Yrotation
				JOINT RightShoulder
				{
					OFFSET -4.235600 0.000000 0.000000
					CHANNELS 6 Xposition Yposition Zposition Zrotation Xrotation Yrotation
					JOINT RightElbow
					{
						OFFSET 0.000000 0.000000 -10.709900
						CHANNELS 6 Xposition Yposition Zposition Zrotation Xrotation Yrotation
						JOINT RightWrist
						{
							OFFSET 0.000000 0.000000 -11.716801
							CHANNELS 6 Xposition Yposition Zposition Zrotation Xrotation Yrotation
							End Site
							{
								OFFSET 0.000000 0.000000 -2.173901
							}
						}
					}
				}
			}
		}
	}
	JOINT LeftHip
	{
		OFFSET 2.279499 0.210400 -2.475502
		CHANNELS 6 Xposition Yposition Zposition Zrotation Xrotation Yrotation
		JOINT LeftKnee
		{
			OFFSET 0.000000 -0.000004 -20.742800
			CHANNELS 6 Xposition Yposition Zposition Zrotation Xrotation Yrotation
			JOINT LeftAnkle
			{
				OFFSET 0.000000 0.000000 -16.666000
				CHANNELS 6 Xposition Yposition Zposition Zrotation Xrotation Yrotation
				End Site
				{
					OFFSET 0.000000 -8.310898 0.000000
				}
			}
		}
	}
	JOINT RightHip
	{
		OFFSET -1.961899 0.232300 -2.727402
		CHANNELS 6 Xposition Yposition Zposition Zrotation Xrotation Yrotation
		JOINT RightKnee
		{
			OFFSET 0.000000 -0.000004 -20.526800
			CHANNELS 6 Xposition Yposition Zposition Zrotation Xrotation Yrotation
			JOINT RightAnkle
			{
				OFFSET 0.000000 0.000000 -16.867300
				CHANNELS 6 Xposition Yposition Zposition Zrotation Xrotation Yrotation
				End Site
				{
					OFFSET 0.000000 -7.186401 0.000000
				}
			}
		}
	}
}
MOTION
Frames: 5
Frame Time: 0.041667
61.351509 58.459206 23.121988 -222.862584 32.555031 6.004952 -0.637395 0.831605 5.390102 23.877955 43.328381 -18.353533 -0.000004 0.000006 4.429908 -13.476581 -9.331205 -1.647256 0.000005 -0.000005 10.301406 364.085638 36.005974 -1.210582 0.000001 -0.000005 2.173907 -359.818628 8.172736 -0.206431 2.142405 -0.572701 5.717810 -22.208268 9.524931 13.229817 5.673997 0.000004 -0.000002 134.700073 187.747461 94.138025 0.000009 0.000001 -12.238699 -68.116397 -180.666085 -178.575501 0.000004 0.000001 -10.253704 -148.493285 -21.709089 -31.615918 -2.882591 -1.580094 6.695806 18.877302 17.674817 -26.334520 -4.235608 0.000000 0.000000 52.608952 -13.894360 93.344596 0.000005 0.000008 -10.709905 -17.158350 -9.557651 -3.264340 0.000005 0.000004 -11.716801 35.988229 8.861345 15.353627 2.279501 0.210413 -2.475507 112.080064 -42.427492 102.484468 -0.000004 -0.000006 -20.742813 -144.089507 -15.246458 147.600101 -0.000000 0.000003 -16.666000 94.925122 6.482048 51.403785 -1.961891 0.232306 -2.727400 -136.500675 -35.390321 -139.561433 0.000000 -0.000008 -20.526800 146.365503 28.914923 -117.667480 -0.000010 0.000001 -16.867304 -25.599119 19.182486 -12.489228
61.367699 58.443203 23.118990 -222.784761 32.565553 6.071700 -0.637409 0.831595 5.390092 23.904740 43.276266 -18.464254 -0.000011 -0.000000 4.429900 -13.473993 -9.346129 -1.649251 0.000011 -0.000003 10.301406 364.102222 36.035398 -1.225504 0.000007 0.000000 2.173889 -359.812781 8.155658 -0.227013 2.142404 -0.572692 5.717809 -22.259479 9.579368 13.259187 5.673992 -0.000002 -0.000000 134.670225 187.923421 94.110834 0.000005 -0.000005 -12.238698 -68.292493 -180.639160 -178.661370 0.000010 0.000000 -10.253698 -148.718353 -21.593590 -31.911634 -2.882595 -1.580089 6.695810 18.973161 17.768935 -26.278728 -4.235604 0.000010 0.000004 52.614474 -13.330337 93.380618 -0.000003 0.000009 -10.709906 -17.856850 -9.384796 -3.284820 -0.000005 0.000007 -11.716805 36.029384 8.777816 15.363740 2.279495 0.210407 -2.475505 112.115875 -42.467729 102.562797 0.000003 -0.000009 -20.742809 -144.148684 -15.282692 147.603940 -0.000005 0.000000 -16.666012 94.899318 6.393335 51.630141 -1.961905 0.232298 -2.727400 -136.489419 -35.369124 -139.516641 -0.000003 -0.000009 -20.526817 146.279470 28.752535 -117.658013 0.000004 0.000007 -16.867304 -25.793899 19.114134 -12.608290
61.384415 58.428505 23.115078 -222.729149 32.569289 6.114310 -0.637406 0.831600 5.390103 23.920391 43.242488 -18.514355 -0.000018 0.000002 4.429901 -13.460470 -9.359187 -1.649969 0.000003 -0.000005 10.301408 364.113915 36.075471 -1.257623 -0.000004 -0.000005 2.173899 -359.820540 8.134961 -0.235761 2.142389 -0.572696 5.717809 -22.329003 9.648997 13.277145 5.673997 -0.000004 -0.000004 134.631484 188.199961 94.073855 0.000011 0.000003 -12.238701 -68.565933 -180.596390 -178.782947 0.000002 0.000001 -10.253698 -148.960620 -21.506792 -32.215977 -2.882599 -1.580089 6.695794 19.062812 17.857654 -26.253068 -4.235604 -0.000003 -0.000006 52.671198 -12.864143 93.437131 0.000001 0.000000 -10.709898 -18.442153 -9.139191 -3.273487 -0.000008 0.000000 -11.716804 36.086741 8.707234 15.362801 2.279492 0.210406 -2.475500 112.154240 -42.473934 102.613087 -0.000003 0.000007 -20.742805 -144.212983 -15.309956 147.613543 -0.000006 -0.000002 -16.665997 94.848487 6.316270 51.789230 -1.961900 0.232296 -2.727392 -136.494309 -35.395017 -139.511163 -0.000009 -0.000010 -20.526800 146.161335 28.561624 -117.637673 -0.000003 0.000011 -16.867300 -26.005018 19.032507 -12.755728
61.402100 58.415108 23.109188 -222.719396 32.555045 6.160606 -0.637412 0.831609 5.390106 23.963237 43.228110 -18.530592 -0.000006 0.000006 4.429904 -13.436072 -9.409551 -1.651595 0.000002 0.000002 10.301388 364.117330 36.165479 -1.299456 0.000001 -0.000001 2.173890 -359.847096 8.111666 -0.234724 2.142408 -0.572705 5.717796 -22.411796 9.759148 13.304029 5.673996 0.000009 0.000005 134.582894 188.517347 94.031699 -0.000002 -0.000005 -12.238701 -68.886624 -180.537923 -178.928840 0.000011 0.000021 -10.253699 -149.177847 -21.488742 -32.475415 -2.882597 -1.580091 6.695792 19.134529 17.970996 -26.255899 -4.235608 0.000005 0.000003 52.779245 -12.531482 93.497845 0.000009 0.000013 -10.709901 -18.876763 -8.830426 -3.234535 -0.000008 -0.000002 -11.716800 36.148906 8.651323 15.346452 2.279492 0.210410 -2.475497 112.222884 -42.444233 102.634766 0.000000 -0.000011 -20.742805 -144.275547 -15.349356 147.634184 -0.000002 0.000005 -16.666002 94.811775 6.239050 51.920919 -1.961899 0.232304 -2.727390 -136.494473 -35.471560 -139.537158 0.000001 -0.000007 -20.526796 146.017874 28.382936 -117.624190 0.000001 0.000005 -16.867294 -26.204302 18.944165 -12.903061
61.417419 58.405899 23.100689 -222.766401 32.507093 6.221382 -0.637399 0.831614 5.390103 24.055713 43.242057 -18.532364 -0.000012 0.000014 4.429907 -13.406241 -9.415320 -1.649815 0.000002 -0.000008 10.301394 364.144022 36.226712 -1.362913 0.000002 0.000000 2.173904 -359.883979 8.086200 -0.239976 2.142407 -0.572702 5.717796 -22.489330 9.827945 13.307601 5.674004 0.000003 0.000008 134.523895 188.764026 93.993737 -0.000002 0.000008 -12.238695 -69.149443 -180.465578 -179.084568 0.000006 0.000008 -10.253697 -149.358847 -21.538587 -32.670523 -2.882603 -1.580095 6.695792 19.174134 18.024171 -26.244947 -4.235601 -0.000002 -0.000014 52.933054 -12.349688 93.556345 0.000002 0.000006 -10.709906 -19.147402 -8.473210 -3.188244 -0.000010 0.000003 -11.716803 36.232740 8.586417 15.307996 2.279500 0.210408 -2.475502 112.309572 -42.439763 102.612930 -0.000005 -0.000009 -20.742809 -144.294836 -15.383498 147.662584 -0.000006 0.000000 -16.666008 94.794597 6.153486 52.047073 -1.961890 0.232311 -2.727407 -136.434641 -35.543417 -139.544330 -0.000003 -0.000010 -20.526814 145.904534 28.189487 -117.622455 0.000001 -0.000000 -16.867306 -26.396362 18.859322 -13.038397
